<mxfile host="app.diagrams.net" modified="2024-04-07T12:32:56.265Z" agent="Mozilla/5.0 (Windows NT 10.0; Win64; x64) AppleWebKit/537.36 (KHTML, like Gecko) Chrome/123.0.0.0 Safari/537.36 Edg/123.0.0.0" etag="9B3T1eIGsrBD_dU9v8zm" version="24.2.2" type="github">
  <diagram name="Page-1" id="owPfQs8aClC0pVrJ_4RF">
    <mxGraphModel dx="1158" dy="594" grid="1" gridSize="10" guides="1" tooltips="1" connect="1" arrows="1" fold="1" page="1" pageScale="1" pageWidth="850" pageHeight="1100" math="0" shadow="0">
      <root>
        <mxCell id="0" />
        <mxCell id="1" parent="0" />
      </root>
    </mxGraphModel>
  </diagram>
</mxfile>
